<svg viewBox="38.3091 44.3046 395.52 54.6373" xmlns="http://www.w3.org/2000/svg">
  <g id="tight-bounds" transform="matrix(1, 0, 0, 1, 38.30905179909655, 44.30458483326871)">
    <svg viewBox="0 0 395.52 54.63734591094411" height="54.63734591094411" width="395.52">
      <g>
        <svg viewBox="0 0 395.52000000000004 54.63734591094412" height="54.63734591094411" width="395.52">
          <g>
            <svg viewBox="0 0 395.52000000000004 54.63734591094412" height="54.63734591094412" width="395.52000000000004">
              <g id="textblocktransform">
                <svg viewBox="0 0 395.52000000000004 54.63734591094412" height="54.63734591094412" width="395.52000000000004" id="textblock">
                  <g>
                    <svg viewBox="0 0 395.52000000000004 54.63734591094412" height="54.63734591094412" width="395.52000000000004">
                      <g transform="matrix(1,0,0,1,0,0)">
                        <svg width="395.52000000000004" viewBox="1.4900000095367432 -40.43000030517578 305.3800048828125 42.189998626708984" height="54.63734591094412" data-palette-color="#000000">
                          <path d="M27.86-38.67L1.49-38.67 1.49-40.43 27.86-40.43 27.86-38.67ZM27.86-35.16L1.49-35.16 1.49-36.91 27.86-36.91 27.86-35.16ZM8.52-31.64L1.49-31.64 1.49-33.4 27.86-33.4 27.86-31.64 20.83-31.64 20.83 0 19.07 0 19.07-31.64 17.31-31.64 17.31 0 15.55 0 15.55-31.64 13.79-31.64 13.79 0 12.04 0 12.04-31.64 10.28-31.64 10.28 0 8.52 0 8.52-31.64ZM45.11-15.04L45.11-16.8 55.71-16.8Q57.81-16.8 59.27-18.12 60.74-19.43 60.74-21.83L60.74-21.83Q60.74-23.58 59.21-24.98 57.69-26.37 55.71-26.37L55.71-26.37 40.62-26.37 40.62 0 38.86 0 38.86-28.13 55.71-28.13Q58.42-28.13 60.46-26.22 62.5-24.32 62.5-21.83L62.5-21.83Q62.5-18.73 60.52-16.88 58.54-15.04 55.71-15.04L55.71-15.04 45.11-15.04ZM45.11-11.52L45.11-13.28 55.71-13.28Q59.23-13.28 61.74-15.67 64.26-18.07 64.26-21.83L64.26-21.83Q64.26-25.02 61.69-27.45 59.13-29.88 55.71-29.88L55.71-29.88 37.11-29.88 37.11 0 35.35 0 35.35-31.64 55.71-31.64Q59.86-31.64 62.94-28.7 66.01-25.76 66.01-21.83L66.01-21.83Q66.01-17.43 62.97-14.48 59.93-11.52 55.71-11.52L55.71-11.52 45.11-11.52ZM45.11-8.01L45.11-9.77 55.71-9.77Q58.96-9.77 61.72-11.33 64.48-12.89 66.12-15.67 67.77-18.46 67.77-21.83L67.77-21.83Q67.77-24.88 66.14-27.55 64.5-30.22 61.7-31.81 58.91-33.4 55.71-33.4L55.71-33.4 33.59-33.4 33.59 0 31.83 0 31.83-35.16 55.71-35.16Q58.47-35.16 61.02-34.07 63.57-32.98 65.43-31.19 67.28-29.39 68.41-26.93 69.53-24.46 69.53-21.83L69.53-21.83Q69.53-17.55 67.58-14.37 65.62-11.18 62.33-9.52L62.33-9.52 66.01 0 64.13 0 60.64-8.81Q59.98-8.59 59.1-8.37L59.1-8.37 62.4 0 60.52 0 57.3-8.08Q56.54-8.01 55.71-8.01L55.71-8.01 58.81 0 56.96 0 53.88-8.01 52.29-8.01 55.25 0 53.39 0 50.41-8.01 45.11-8.01ZM44.14-22.85L44.14 0 42.38 0 42.38-24.61 55.71-24.61Q57.08-24.61 58.03-23.79 58.98-22.97 58.98-21.83L58.98-21.83Q58.98-18.55 55.71-18.55L55.71-18.55 45.11-18.55 45.11-20.31 55.71-20.31Q57.22-20.31 57.22-21.83L57.22-21.83Q57.22-22.24 56.77-22.55 56.32-22.85 55.71-22.85L55.71-22.85 44.14-22.85ZM98.36 0L98.36-17.33Q98.36-20.46 96.43-22.17 94.5-23.88 91.33-23.88L91.33-23.88Q88.64-23.88 86.71-22.02 84.79-20.17 84.79-17.58L84.79-17.58Q84.79-16.11 85.18-14.95 85.57-13.79 86.24-13.02 86.91-12.26 87.84-11.76 88.76-11.25 89.78-11.04 90.79-10.82 91.94-10.82L91.94-10.82Q94.72-10.82 97.02-12.18L97.02-12.18 97.02-10.42Q94.65-9.18 91.91-9.18L91.91-9.18Q90.16-9.18 88.61-9.66 87.06-10.13 85.79-11.1 84.52-12.06 83.77-13.73 83.03-15.41 83.03-17.58L83.03-17.58Q83.03-20.95 85.4-23.29 87.76-25.63 91.33-25.63L91.33-25.63Q95.26-25.63 97.69-23.43 100.12-21.22 100.12-17.33L100.12-17.33 100.12 0 98.36 0ZM103.63-17.33L103.63-17.33 103.63 0 101.87 0 101.87-17.33Q101.87-21.95 98.92-24.67 95.97-27.39 91.33-27.39L91.33-27.39Q87.03-27.39 84.15-24.54 81.27-21.68 81.27-17.58L81.27-17.58Q81.27-15.09 82.14-13.11 83-11.13 84.49-9.94 85.98-8.74 87.82-8.12 89.67-7.5 91.72-7.5L91.72-7.5Q94.5-7.5 97.02-8.79L97.02-8.79 97.02-6.93Q94.38-5.83 91.69-5.83L91.69-5.83Q89.28-5.83 87.1-6.58 84.93-7.32 83.22-8.75 81.51-10.18 80.51-12.46 79.51-14.75 79.51-17.58L79.51-17.58Q79.51-22.39 82.92-25.77 86.32-29.15 91.33-29.15L91.33-29.15Q94.84-29.15 97.63-27.72 100.41-26.29 102.02-23.58 103.63-20.87 103.63-17.33ZM107.15-17.33L107.15-17.33 107.15 0 105.39 0 105.39-17.33Q105.39-21.36 103.55-24.48 101.7-27.59 98.51-29.25 95.31-30.91 91.33-30.91L91.33-30.91Q87.54-30.91 84.42-29.11 81.29-27.32 79.52-24.27 77.75-21.22 77.75-17.58L77.75-17.58Q77.75-14.45 78.9-11.88 80.05-9.3 81.99-7.64 83.93-5.98 86.41-5.07 88.89-4.15 91.6-4.15L91.6-4.15Q94.36-4.15 97.02-5.3L97.02-5.3 97.02-3.52Q94.23-2.47 91.55-2.47L91.55-2.47Q87.32-2.47 83.78-4.37 80.24-6.27 78.12-9.77 76-13.26 76-17.58L76-17.58Q76-20.65 77.18-23.44 78.36-26.22 80.39-28.25 82.42-30.27 85.27-31.47 88.13-32.67 91.33-32.67L91.33-32.67Q95.8-32.67 99.4-30.76 103-28.86 105.07-25.34 107.15-21.83 107.15-17.33ZM110.66-17.33L110.66-17.33 110.66 0 108.91 0 108.91-17.33Q108.91-22.31 106.59-26.23 104.27-30.15 100.26-32.29 96.26-34.42 91.33-34.42L91.33-34.42Q86.59-34.42 82.66-32.15 78.73-29.88 76.48-26.01 74.24-22.14 74.24-17.58L74.24-17.58Q74.24-14.58 75.2-11.88 76.17-9.18 77.84-7.17 79.51-5.15 81.7-3.69 83.88-2.22 86.41-1.46 88.94-0.71 91.55-0.71L91.55-0.71Q94.43-0.71 97.02-1.81L97.02-1.81 97.02 0Q94.31 0.95 91.45 0.95L91.45 0.95Q88.5 0.95 85.7 0.12 82.91-0.71 80.52-2.33 78.14-3.96 76.34-6.16 74.53-8.37 73.51-11.33 72.48-14.28 72.48-17.58L72.48-17.58Q72.48-21.36 73.91-24.79 75.34-28.22 77.81-30.73 80.29-33.23 83.82-34.7 87.35-36.18 91.33-36.18L91.33-36.18Q95.38-36.18 98.95-34.81 102.51-33.45 105.1-31.02 107.69-28.59 109.17-25.05 110.66-21.51 110.66-17.33ZM135.3-10.55L125.55-10.55 125.55-24.61Q125.55-24.61 135.3-24.61L135.3-24.61Q138.01-24.61 139.95-22.56 141.89-20.51 141.89-17.63L141.89-17.63Q141.89-14.65 139.96-12.6 138.03-10.55 135.3-10.55L135.3-10.55ZM127.31-22.85L127.31-12.3 135.3-12.3Q137.27-12.3 138.68-13.84 140.08-15.38 140.08-17.63L140.08-17.63Q140.08-19.78 138.68-21.31 137.27-22.85 135.3-22.85L135.3-22.85 127.31-22.85ZM123.8-26.37L123.8-8.79 135.3-8.79Q138.76-8.79 141.23-11.36 143.69-13.94 143.69-17.63L143.69-17.63Q143.69-21.24 141.22-23.8 138.74-26.37 135.3-26.37L135.3-26.37 123.8-26.37ZM135.3-7.03L122.04-7.03 122.04-28.13 135.3-28.13Q139.47-28.13 142.49-25.04 145.5-21.95 145.5-17.63L145.5-17.63Q145.5-13.21 142.5-10.12 139.49-7.03 135.3-7.03L135.3-7.03ZM120.28-29.88L120.28-5.27 135.3-5.27Q138.52-5.27 141.28-6.91 144.04-8.54 145.67-11.4 147.31-14.26 147.31-17.63L147.31-17.63Q147.31-20.92 145.67-23.75 144.04-26.59 141.26-28.23 138.49-29.88 135.3-29.88L135.3-29.88 120.28-29.88ZM135.3-3.52L118.52-3.52 118.52-31.64 135.3-31.64Q138.98-31.64 142.17-29.76 145.35-27.88 147.23-24.65 149.11-21.41 149.11-17.63L149.11-17.63Q149.11-13.79 147.23-10.53 145.35-7.28 142.17-5.4 138.98-3.52 135.3-3.52L135.3-3.52ZM116.76-33.4L116.76-1.76 135.3-1.76Q139.47-1.76 143.06-3.87 146.65-5.98 148.78-9.64 150.92-13.31 150.92-17.63L150.92-17.63Q150.92-21.88 148.78-25.52 146.65-29.17 143.05-31.29 139.45-33.4 135.3-33.4L135.3-33.4 116.76-33.4ZM135.3 0L135.3 0 115.01 0 115.01-35.16 135.3-35.16Q139.93-35.16 143.95-32.8 147.97-30.44 150.35-26.4 152.73-22.36 152.73-17.63L152.73-17.63Q152.73-14.04 151.32-10.77 149.92-7.5 147.56-5.14 145.21-2.78 141.98-1.39 138.76 0 135.3 0ZM165.44-35.16L165.44 0 163.69 0 163.69-35.16 165.44-35.16ZM161.93-35.16L161.93 0 160.17 0 160.17-35.16 161.93-35.16ZM158.41-35.16L158.41 0 156.66 0 156.66-35.16 158.41-35.16ZM168.96-13.21L168.96-8.79 185.78-8.79 185.78-7.03 168.96-7.03 168.96-5.27 185.78-5.27 185.78-3.52 168.96-3.52 168.96-1.76 185.78-1.76 185.78 0 167.2 0 167.2-35.16 185.78-35.16 185.78-33.4 168.96-33.4 168.96-31.64 185.78-31.64 185.78-29.88 168.96-29.88 168.96-28.13 185.78-28.13 185.78-26.37 168.96-26.37 168.96-22 184.8-22 184.8-20.24 168.96-20.24 168.96-18.48 184.8-18.48 184.8-16.72 168.96-16.72 168.96-14.97 184.8-14.97 184.8-13.21 168.96-13.21ZM228.67 0L228.67-40.43 230.43-40.43 230.43 0 228.67 0ZM190 0L190-40.43 191.76-40.43 191.76 0 190 0ZM225.16 0L225.16-40.43 226.92-40.43 226.92 0 225.16 0ZM221.64 0L221.64-40.43 223.4-40.43 223.4 0 221.64 0ZM218.13-24.63L218.13-40.43 219.88-40.43 219.88 0 218.13 0 218.13-15.84 202.31-15.84 202.31 0 200.55 0 200.55-40.43 202.31-40.43 202.31-24.63 218.13-24.63ZM197.03 0L197.03-40.43 198.79-40.43 198.79 0 197.03 0ZM193.52 0L193.52-40.43 195.28-40.43 195.28 0 193.52 0ZM202.31-17.6L218.13-17.6 218.13-19.36 202.31-19.36 202.31-17.6ZM202.31-21.12L218.13-21.12 218.13-22.88 202.31-22.88 202.31-21.12ZM258.14-15.58L258.14-15.58 258.14-35.16 259.9-35.16 259.9-15.58Q259.9-12.79 257.76-10.79 255.62-8.79 252.62-8.79 249.62-8.79 247.48-10.79 245.35-12.79 245.35-15.58L245.35-15.58 245.35-35.16 247.1-35.16 247.1-15.58Q247.1-13.5 248.73-12.02 250.35-10.55 252.62-10.55 254.89-10.55 256.52-12.02 258.14-13.5 258.14-15.58ZM261.65-15.58L261.65-15.58 261.65-35.16 263.41-35.16 263.41-15.58Q263.41-11.3 260.24-8.29 257.07-5.27 252.62-5.27 248.18-5.27 245-8.29 241.83-11.3 241.83-15.58L241.83-15.58 241.83-35.16 243.59-35.16 243.59-15.58Q243.59-12.04 246.24-9.53 248.89-7.03 252.62-7.03L252.62-7.03Q256.33-7.03 258.99-9.53 261.65-12.04 261.65-15.58ZM265.17-15.58L265.17-15.58 265.17-35.16 266.93-35.16 266.93-15.58Q266.93-11.84 265-8.65 263.07-5.47 259.78-3.61 256.48-1.76 252.62-1.76 248.76-1.76 245.47-3.61 242.17-5.47 240.24-8.65 238.32-11.84 238.32-15.58L238.32-15.58 238.32-35.16 240.07-35.16 240.07-15.58Q240.07-12.33 241.76-9.55 243.44-6.76 246.34-5.14 249.23-3.52 252.62-3.52 256.02-3.52 258.91-5.14 261.8-6.76 263.49-9.55 265.17-12.33 265.17-15.58ZM268.69-15.58L268.69-15.58 268.69-35.16 270.44-35.16 270.44-15.58Q270.44-12.06 269.03-8.85 267.61-5.64 265.22-3.32 262.83-1 259.53 0.38 256.24 1.76 252.62 1.76 249.01 1.76 245.71 0.38 242.42-1 240.02-3.32 237.63-5.64 236.22-8.85 234.8-12.06 234.8-15.58L234.8-15.58 234.8-35.16 236.56-35.16 236.56-15.58Q236.56-11.38 238.72-7.79 240.88-4.2 244.58-2.1 248.28 0 252.62 0 256.97 0 260.67-2.1 264.36-4.2 266.53-7.79 268.69-11.38 268.69-15.58ZM302.4-17.77L302.4-17.77 302.35-17.8Q305.11-20.48 305.11-24.34L305.11-24.34Q305.11-28 302.39-30.7 299.67-33.4 295.95-33.4L295.95-33.4 276.62-33.4 276.62 0 274.86 0 274.86-35.16 295.95-35.16Q298.84-35.16 301.36-33.68 303.89-32.2 305.38-29.7 306.87-27.2 306.87-24.34L306.87-24.34Q306.87-20.43 304.77-17.63L304.77-17.63Q306.87-14.72 306.87-11.23L306.87-11.23Q306.87-7.89 305.35-5.33 303.84-2.78 301.39-1.49 298.93-0.2 295.95-0.2L295.95-0.2 284.85-0.2 284.85-1.95 295.95-1.95Q299.71-1.95 302.41-4.63 305.11-7.3 305.11-11.23L305.11-11.23Q305.11-13.04 304.33-14.79 303.55-16.55 302.38-17.75L302.38-17.75Q302.38-17.77 302.4-17.77ZM295.95-8.98L295.95-8.98 284.85-8.98 284.85-7.23 295.95-7.23Q297.57-7.23 298.7-8.31 299.84-9.4 299.84-11.23L299.84-11.23Q299.84-12.82 298.66-14.03 297.49-15.23 295.95-15.23L295.95-15.23 284.82-15.23 284.82-13.48 295.95-13.48Q296.78-13.48 297.43-12.79 298.08-12.11 298.08-11.23L298.08-11.23Q298.08-10.16 297.47-9.57 296.86-8.98 295.95-8.98ZM295.95-5.47L295.95-5.47 284.85-5.47 284.85-3.71 295.95-3.71Q298.98-3.71 301.17-5.87 303.35-8.03 303.35-11.23L303.35-11.23Q303.35-13.26 302.27-15.05 301.18-16.85 299.4-17.82L299.4-17.82Q301.18-18.75 302.27-20.47 303.35-22.19 303.35-24.34L303.35-24.34Q303.35-27.27 301.14-29.46 298.93-31.64 295.95-31.64L295.95-31.64 278.38-31.64 278.38 0 280.13 0 280.13-29.88 295.95-29.88Q298.2-29.88 299.9-28.21 301.59-26.54 301.59-24.34L301.59-24.34Q301.59-21.9 299.93-20.32 298.27-18.75 295.95-18.75L295.95-18.75 290.58-18.75 284.85-18.75 284.85-16.99 290.58-16.99 295.95-16.99Q298.2-16.99 299.9-15.26 301.59-13.53 301.59-11.23L301.59-11.23Q301.59-8.69 299.93-7.08 298.27-5.47 295.95-5.47ZM295.95-22.27L295.95-22.27 284.85-22.27 284.85-20.51 295.95-20.51Q297.59-20.51 298.71-21.55 299.84-22.58 299.84-24.34L299.84-24.34Q299.84-25.83 298.66-26.98 297.49-28.13 295.95-28.13L295.95-28.13 281.89-28.13 281.89 0 283.65 0 283.65-26.37 295.95-26.37Q296.78-26.37 297.43-25.74 298.08-25.12 298.08-24.34L298.08-24.34Q298.08-23.34 297.47-22.8 296.86-22.27 295.95-22.27Z" opacity="1" transform="matrix(1,0,0,1,0,0)" fill="#000000" class="wordmark-text-0" data-fill-palette-color="primary" id="text-0"/>
                        </svg>
                      </g>
                    </svg>
                  </g>
                </svg>
              </g>
            </svg>
          </g>
          <g/>
        </svg>
      </g>
    </svg>
  </g>
</svg>